<svg width="40" height="40" viewBox="0 0 40 40" fill="none" xmlns="http://www.w3.org/2000/svg">
<path d="M22.7719 15.1743L19.0768 13.668C18.6203 14.1234 18.0303 14.4105 17.3926 14.4898C16.4724 14.6044 14.1506 14.8934 13.3066 14.9985C13.6044 15.4985 14.1166 15.8481 14.7278 15.922C14.8135 15.941 14.3658 15.8529 16.9885 16.365L17.2907 19.2625C17.3587 19.9146 17.9423 20.3901 18.597 20.3221C19.2503 20.2539 19.7247 19.6691 19.6566 19.0158L19.3796 16.3602L21.874 17.3771C22.4824 17.6252 23.1763 17.3328 23.4243 16.7247C23.6722 16.1163 23.3801 15.4223 22.7719 15.1743Z" fill="#3F3F3F"/>
<path d="M18.4737 6.20913C19.7749 6.20913 20.8297 5.1543 20.8297 3.8531C20.8297 2.5519 19.7749 1.49707 18.4737 1.49707C17.1725 1.49707 16.1177 2.5519 16.1177 3.8531C16.1177 5.1543 17.1725 6.20913 18.4737 6.20913Z" fill="#3F3F3F"/>
<path d="M22.3485 9.38109L21.1222 8.96632L22.0116 8.74366C22.6488 8.58421 23.0361 7.93827 22.8767 7.30116C22.7172 6.66389 22.0711 6.27701 21.4342 6.43615L17.6991 7.37092C17.4941 7.19311 17.2482 7.05584 16.9702 6.97631C15.9504 6.68412 14.8879 7.27459 14.5962 8.29397L14.3848 9.03296C15.1434 8.93859 15.9051 8.84374 16.6781 8.74749C17.5592 8.6378 18.3971 8.93734 19.0016 9.49695C19.4366 9.89961 19.7501 10.4373 19.8723 11.0546L21.5863 11.6343C22.2097 11.845 22.8839 11.51 23.094 10.8888C23.3045 10.2666 22.9707 9.59156 22.3485 9.38109Z" fill="#3F3F3F"/>
<path d="M18.4694 11.4284C18.3642 10.6364 17.6367 10.0796 16.845 10.1846L11.2285 10.93L6.9812 9.41088L10.3653 9.62346C9.99645 9.11018 9.39621 8.78369 8.73129 8.78369C7.49378 8.78369 6.62338 8.78369 5.24986 8.78369C4.28696 8.78369 3.46259 9.46315 3.27555 10.4076L0.198192 25.9552C0.093113 26.4861 0.502022 26.978 1.03765 26.978C1.52867 26.978 2.16617 26.978 2.89461 26.978V38.1514C2.89461 39.1723 3.7222 39.9999 4.74306 39.9999C5.76385 39.9999 6.59151 39.1724 6.59151 38.1514V26.978C6.85729 26.978 7.12378 26.978 7.38964 26.978V38.1514C7.38964 39.1723 8.21722 39.9999 9.23809 39.9999C10.259 39.9999 11.0865 39.1724 11.0865 38.1514V26.978C11.8151 26.978 12.4526 26.978 12.9435 26.978C13.4821 26.978 13.8879 26.4853 13.783 25.9552L11.655 15.2041C10.7454 15.3125 10.0865 15.4928 9.36645 14.9189L5.76635 12.0493L10.5842 13.7723C10.7933 13.8471 11.025 13.8756 11.2617 13.8442L17.2256 13.0528C18.0177 12.9477 18.5745 12.2204 18.4694 11.4284Z" fill="#3F3F3F"/>
<path d="M6.99021 7.59713C8.75331 7.59713 10.1826 6.16786 10.1826 4.40476C10.1826 2.64167 8.75331 1.2124 6.99021 1.2124C5.22712 1.2124 3.79785 2.64167 3.79785 4.40476C3.79785 6.16786 5.22712 7.59713 6.99021 7.59713Z" fill="#3F3F3F"/>
<path d="M38.8873 8.88625C38.8253 8.10616 38.1395 7.52522 37.36 7.59218C34.2229 7.81811 29.5546 8.34476 29.5546 8.34476L26.3088 4.31216C25.7905 3.66825 24.8486 3.56645 24.2047 4.08473C23.5605 4.60317 23.4593 5.5456 23.9773 6.18889L27.7261 10.8466C28.0403 11.237 28.529 11.4442 29.0282 11.3985L31.1884 11.2009L31.2411 11.8649L31.5378 11.9046L35.6412 9.12015L31.8908 13.4014L26.7599 12.7153C25.9441 12.6063 25.1879 13.182 25.0784 14.0001C25.0784 14.0002 25.0784 14.0003 25.0784 14.0003C24.9679 14.8262 25.5519 15.5741 26.3634 15.6819L32.2896 16.4743C32.7754 16.5392 33.2779 16.36 33.6136 15.9771L37.7551 11.2495L34.882 16.6517C34.5735 17.2318 33.495 18.0847 32.0993 17.8983L31.7163 17.847L32.0832 22.4678V38.1933C32.0832 39.191 32.892 39.9999 33.8897 39.9999C34.8874 39.9999 35.6963 39.191 35.6963 38.1933V22.7828L36.2052 22.739V38.1931C36.2052 39.1908 37.014 39.9997 38.0118 39.9997C39.0095 39.9997 39.8184 39.1909 39.8184 38.1931V22.4284L38.8873 8.88625Z" fill="#3F3F3F"/>
<path d="M34.2226 6.64551C36.0577 6.64551 37.5453 5.15786 37.5453 3.32275C37.5453 1.48765 36.0577 0 34.2226 0C32.3875 0 30.8998 1.48765 30.8998 3.32275C30.8998 5.15786 32.3875 6.64551 34.2226 6.64551Z" fill="#3F3F3F"/>
</svg>
