<svg width="36" height="36" viewBox="0 0 36 36" fill="none" xmlns="http://www.w3.org/2000/svg">
<path d="M21.7526 0.842344C20.6072 0.314297 19.3437 0 18 0C14.2249 0 11.0039 2.32945 9.66727 5.625H15.3759L21.7526 0.842344ZM26.3327 5.625C25.7773 4.25602 24.8794 3.07969 23.767 2.14313L19.1243 5.625H26.3327ZM18 18C22.9704 18 27 13.9704 27 9C27 8.61469 26.9332 8.24766 26.8868 7.875H9.1132C9.06609 8.24766 9 8.61469 9 9C9 13.9704 13.0296 18 18 18ZM7.875 21.0727V36H16.8933L9.97102 20.4244C9.2493 20.5574 8.54578 20.775 7.875 21.0727ZM2.25 32.625C2.25 34.489 3.76102 36 5.625 36V22.5169C3.5775 24.2501 2.25 26.8073 2.25 29.7V32.625ZM20.25 29.25H16.3561L19.3563 36H20.25C22.1112 36 23.625 34.4862 23.625 32.625C23.625 30.7638 22.1112 29.25 20.25 29.25ZM24.3 20.25H23.1251C21.5613 20.9658 19.8288 21.375 18 21.375C16.1712 21.375 14.4387 20.9658 12.8749 20.25H12.3567L15.357 27H20.25C23.3515 27 25.875 29.5235 25.875 32.625C25.875 33.8963 25.4348 35.0571 24.7212 36H30.375C32.239 36 33.75 34.489 33.75 32.625V29.7C33.75 24.4807 29.5193 20.25 24.3 20.25Z" fill="#3F3F3F"/>
</svg>
