<svg width="36" height="36" viewBox="0 0 36 36" fill="#D6D6D6" xmlns="http://www.w3.org/2000/svg">
<path d="M8.7267 11.6914H1.22324V34.8221H8.7267V11.6914Z"/>
<path d="M29.1649 11.9627C29.0852 11.9377 29.0097 11.9104 28.9261 11.8869C28.825 11.8639 28.7246 11.8447 28.6218 11.8283C28.2237 11.7482 27.7868 11.6915 27.2754 11.6915C22.9012 11.6915 20.1262 14.8817 19.2124 16.1137V11.6914H11.7089V34.8221H19.2123V22.2054C19.2123 22.2054 24.8825 14.2863 27.2753 20.1023V34.8221H34.7768V19.2132C34.7768 15.7181 32.388 12.8059 29.1649 11.9627Z"/>
<path d="M8.56332 4.85754C8.56332 6.8902 6.9199 8.53749 4.89336 8.53749C2.86667 8.53749 1.22333 6.89013 1.22333 4.85754C1.22333 2.8253 2.86667 1.17773 4.89336 1.17773C6.9199 1.17773 8.56332 2.8253 8.56332 4.85754Z" />
</svg>
