<svg width="139" height="112" viewBox="0 0 139 112" fill="none" xmlns="http://www.w3.org/2000/svg">
<path d="M45.3702 81.986C45.3702 79.556 43.3362 78.656 41.3022 77.954C39.2862 77.234 37.3962 76.73 37.3962 75.128C37.3962 73.976 38.4042 73.238 39.7722 73.238C41.5002 73.238 42.8502 74.318 43.3902 75.992H43.6782L44.7402 72.824C43.5342 72.482 42.0402 72.23 40.5822 72.23C37.5942 72.23 35.6322 73.85 35.6322 76.064C35.6322 78.584 37.9722 79.376 40.1502 80.096C41.9862 80.726 43.6062 81.302 43.6062 82.922C43.6062 84.218 42.5622 85.262 40.6182 85.262C38.4042 85.262 36.9642 83.858 36.4062 81.698H36.1002L34.5522 85.262C35.9022 85.748 38.0442 86.27 39.8442 86.27C43.1922 86.27 45.3702 84.452 45.3702 81.986ZM55.9887 76.46C52.9827 76.46 50.8407 78.71 50.8407 81.608C50.8407 84.434 52.8927 86.27 54.9807 86.27C56.7087 86.27 58.3107 85.154 58.7607 82.922L58.4367 82.778C57.9687 83.804 57.0327 84.578 55.8627 84.578C54.0807 84.578 52.7667 82.85 52.7667 80.492C52.7667 78.638 53.5767 77.432 54.8907 77.432C55.9707 77.432 56.8887 78.26 57.1227 79.826H57.4287L58.6347 76.892C57.8427 76.622 56.9247 76.46 55.9887 76.46ZM67.1617 77.378V76.352H66.8557C66.1177 77.018 64.9477 77.558 63.7957 77.738V78.08C64.5697 78.278 64.9117 78.746 64.9117 79.808V83.984C64.9117 84.776 64.5337 85.37 63.7957 85.676V86H68.2957V85.676C67.6117 85.352 67.1617 84.776 67.1617 83.984V78.89C67.5217 78.512 67.8277 78.206 68.1877 78.206C68.8717 78.206 69.1057 78.998 69.9157 78.998C70.4557 78.998 71.0137 78.53 71.0137 77.774C71.0137 77.018 70.4197 76.46 69.7177 76.46C68.7277 76.46 67.7197 77.378 67.1617 78.278L67.1077 78.242C67.1257 78.08 67.1617 77.702 67.1617 77.378ZM75.6625 81.338C75.6625 84.11 77.7685 86.27 80.3425 86.27C82.9165 86.27 85.0405 84.128 85.0405 81.338C85.0405 78.566 82.9885 76.46 80.3425 76.46C77.7145 76.46 75.6625 78.584 75.6625 81.338ZM78.0745 81.338C78.0745 78.944 78.8485 77.27 80.3425 77.27C81.8725 77.27 82.6105 78.944 82.6105 81.338C82.6105 83.714 81.8185 85.46 80.3425 85.46C78.8845 85.46 78.0745 83.714 78.0745 81.338ZM93.5809 71.672H93.2749C92.5189 72.338 91.3489 72.878 90.1789 73.058V73.382C91.0429 73.598 91.3129 74.318 91.3129 75.128V83.984C91.3129 84.866 90.9529 85.46 90.3409 85.676V86H94.6429V85.676C93.9949 85.442 93.5809 84.866 93.5809 83.984V71.672ZM103.091 71.672H102.785C102.029 72.338 100.859 72.878 99.6894 73.058V73.382C100.553 73.598 100.823 74.318 100.823 75.128V83.984C100.823 84.866 100.463 85.46 99.8514 85.676V86H104.153V85.676C103.505 85.442 103.091 84.866 103.091 83.984V71.672Z" fill="white"/>
<rect x="54" y="1" width="29" height="48" rx="14.5" stroke="white" stroke-width="2"/>
<circle cx="68.5" cy="15.5" r="2.5" fill="white"/>
</svg>
