<svg width="45" height="45" viewBox="0 0 45 45" fill="#D6D6D6" xmlns="http://www.w3.org/2000/svg">
<path d="M42.9393 12.9579C41.5018 13.5968 39.9548 14.0278 38.3316 14.2207C39.9889 13.2285 41.2597 11.6569 41.859 9.78208C40.3088 10.702 38.5927 11.3696 36.7647 11.7299C35.3018 10.171 33.2167 9.19629 30.9092 9.19629C26.4793 9.19629 22.8876 12.788 22.8876 17.2187C22.8876 17.8466 22.9583 18.4585 23.0956 19.0467C16.4281 18.7117 10.5162 15.5185 6.55941 10.6647C5.86885 11.849 5.47356 13.2269 5.47356 14.6986C5.47356 17.4814 6.88961 19.9373 9.04226 21.3756C7.72781 21.3335 6.49036 20.9723 5.40848 20.3715C5.40768 20.4048 5.40768 20.4389 5.40768 20.4731C5.40768 24.3593 8.1731 27.6009 11.8434 28.3391C11.1703 28.5217 10.4615 28.6201 9.72964 28.6201C9.21212 28.6201 8.70968 28.5701 8.21993 28.4757C9.24149 31.6626 12.2038 33.9827 15.7137 34.047C12.9681 36.1988 9.50978 37.4815 5.75058 37.4815C5.10368 37.4815 4.46471 37.4434 3.83685 37.3688C7.38809 39.6461 11.6045 40.9732 16.1344 40.9732C30.891 40.9732 38.9594 28.7495 38.9594 18.1482C38.9594 17.8005 38.9523 17.4537 38.9372 17.1092C40.5041 15.9805 41.8646 14.5668 42.9393 12.9579Z"/>
</svg>
