<svg width="41" height="41" viewBox="0 0 41 41" fill="none" xmlns="http://www.w3.org/2000/svg">
<path fill-rule="evenodd" clip-rule="evenodd" d="M22.8703 14.3385C23.6685 14.5086 24.2803 14.8119 24.8031 15.3013C25.4757 15.9365 25.8444 16.7053 26.0065 17.8097C26.116 18.5298 26.0712 18.8129 25.8159 19.0477C25.577 19.2662 25.1352 19.2742 24.8678 19.0679C24.6734 18.9221 24.6125 18.7684 24.568 18.3517C24.5154 17.7972 24.4181 17.409 24.2518 17.049C23.8953 16.2844 23.2672 15.8878 22.2057 15.7584C21.7073 15.6976 21.5574 15.6412 21.3953 15.4509C21.0993 15.0989 21.213 14.5284 21.6221 14.318C21.7761 14.2411 21.8408 14.2331 22.1813 14.2533C22.3924 14.2654 22.7044 14.302 22.8703 14.3385ZM22.0074 11.2836C24.4671 11.6437 26.3713 12.7846 27.6196 14.6376C28.3207 15.6815 28.7583 16.9074 28.9082 18.2223C28.9607 18.7037 28.9607 19.5817 28.904 19.7274C28.8512 19.8648 28.6811 20.0509 28.5354 20.1278C28.3774 20.2088 28.0411 20.2005 27.8547 20.1035C27.5427 19.9455 27.4495 19.6947 27.4495 19.015C27.4495 17.9673 27.1779 16.8625 26.708 16.0047C26.1731 15.0255 25.395 14.2164 24.4469 13.654C23.6323 13.1684 22.4289 12.8083 21.3309 12.7193C20.9337 12.6869 20.7149 12.6059 20.565 12.432C20.3341 12.169 20.3097 11.8128 20.5042 11.5175C20.7146 11.1908 21.0388 11.1379 22.0074 11.2836ZM12.4646 8.78745C12.6065 8.83614 12.8253 8.94921 12.9509 9.03025C13.7206 9.54019 15.8641 12.2792 16.5653 13.6466C16.9663 14.4275 17.1002 15.006 16.9746 15.4349C16.8449 15.8961 16.6303 16.1389 15.6697 16.9115C15.2847 17.2229 14.924 17.5426 14.8673 17.6278C14.7216 17.8382 14.604 18.2508 14.604 18.5422C14.6082 19.2178 15.0457 20.4439 15.621 21.3866C16.0666 22.1189 16.8648 23.0574 17.655 23.7778C18.5829 24.6275 19.4013 25.206 20.3254 25.6631C21.5128 26.2538 22.238 26.4034 22.7688 26.1567C22.9023 26.0959 23.0442 26.0151 23.0888 25.9786C23.1291 25.9421 23.4414 25.5619 23.7816 25.141C24.4379 24.3156 24.5878 24.182 25.0379 24.0282C25.6093 23.8341 26.1926 23.8867 26.7804 24.1862C27.2262 24.4168 28.1987 25.0196 28.8265 25.4565C29.6533 26.035 31.4198 27.4754 31.659 27.7628C32.0803 28.2807 32.1533 28.9441 31.8698 29.6766C31.57 30.4492 30.4031 31.8977 29.5885 32.5168C28.8512 33.0751 28.3284 33.2894 27.6394 33.3218C27.0722 33.35 26.8371 33.3016 26.1119 33.0021C20.4231 30.6597 15.8808 27.1641 12.2744 22.3613C10.3903 19.853 8.95562 17.2514 7.97514 14.5528C7.4037 12.9791 7.37552 12.2952 7.84541 11.4899C8.04817 11.1501 8.91109 10.3086 9.53923 9.83936C10.5847 9.0626 11.0668 8.77528 11.4518 8.69424C11.7151 8.63755 12.1732 8.68207 12.4646 8.78745ZM21.7278 8.35055C23.1218 8.52448 24.248 8.86016 25.4841 9.46331C26.6996 10.0581 27.4777 10.6206 28.5069 11.644C29.4713 12.611 30.0062 13.3433 30.5735 14.48C31.3637 16.0659 31.8134 17.9516 31.8903 20.0269C31.9188 20.7348 31.8983 20.8927 31.7362 21.0951C31.4284 21.4875 30.7516 21.4228 30.5207 20.9817C30.4476 20.836 30.4274 20.7108 30.4031 20.1441C30.3624 19.2742 30.3019 18.712 30.1802 18.0403C29.7019 15.4064 28.4377 13.3026 26.4197 11.7933C24.7381 10.5309 22.9997 9.91591 20.7226 9.78234C19.9526 9.73782 19.819 9.70963 19.6448 9.57606C19.3206 9.32109 19.3043 8.72243 19.6163 8.44312C19.8068 8.26919 19.9404 8.24484 20.6009 8.26502C20.9459 8.27752 21.4523 8.3182 21.7278 8.35055ZM20.5 0C31.8218 0 41 9.17823 41 20.5C41 31.8218 31.8218 41 20.5 41C9.17823 41 0 31.8218 0 20.5C0 9.17823 9.17823 0 20.5 0Z" fill="#D6D6D6"/>
</svg>
